<svg width="127" height="48" viewBox="0 0 127 48" fill="none" xmlns="http://www.w3.org/2000/svg">
<g clip-path="url(#clip0)">
<rect width="48" height="48" rx="6" fill="white"/>
<rect width="25.6339" height="25.6339" fill="#FF6B6B"/>
<rect x="15.0268" width="35.3571" height="35.3571" fill="#1F1D8D"/>
<rect x="32.7054" y="-9.72321" width="28.2857" height="28.2857" fill="#A7F2EE"/>
<rect x="-10.5" y="25.5" width="25.6339" height="25.6339" fill="#FCC419"/>
<rect x="15.0268" y="32.7054" width="35.3571" height="35.3571" fill="#9195FF"/>
</g>
<path d="M72.74 4.94V2.3H70.9C68.2 2.3 66.84 3.62 66.84 6.24V6.6H64.6V9.34H66.84V17H70.06V9.34H72.74V6.6H70.06V6.26C70.06 5.28 70.46 4.94 71.48 4.94H72.74ZM74.3559 3.5C74.3559 4.44 75.0359 5.14 76.0759 5.14C77.1159 5.14 77.7959 4.44 77.7959 3.5C77.7959 2.6 77.1159 1.86 76.0759 1.86C75.0359 1.86 74.3559 2.6 74.3559 3.5ZM77.6959 17V6.6H74.4759V17H77.6959ZM86.8842 6.3C85.0242 6.3 83.6842 7.1 82.8642 8.72L83.1642 7.98L83.0442 6.6H79.9442V17H83.1642V11.68C83.1642 10.08 84.0042 9.12 85.6642 9.12C87.1842 9.12 87.9442 9.96 87.9442 11.66V17H91.1842V11.06C91.1842 8.04 89.7642 6.3 86.8842 6.3ZM101.421 7.68L102.021 8.78C101.041 7.14 99.7013 6.32 98.0013 6.32C96.4813 6.32 95.2413 6.84 94.3013 7.9C93.3613 8.94 92.9013 10.24 92.9013 11.8C92.9013 13.36 93.3613 14.66 94.3013 15.72C95.2413 16.78 96.4613 17.3 98.0013 17.3C99.5013 17.3 100.661 16.76 101.441 15.7L101.481 17H104.661V2.8H101.421V7.68ZM96.8213 13.72C96.3213 13.22 96.0813 12.58 96.0813 11.8C96.0813 11.02 96.3213 10.38 96.8013 9.88C97.3013 9.38 97.9413 9.12 98.7613 9.12C99.5813 9.12 100.221 9.38 100.721 9.88C101.221 10.38 101.461 11.02 101.461 11.8C101.461 12.58 101.221 13.24 100.721 13.74C100.221 14.24 99.5813 14.48 98.7613 14.48C97.9413 14.48 97.3013 14.22 96.8213 13.72ZM115.826 6.3C112.446 6.3 110.626 7.26 110.726 9.82H113.586C113.726 9 114.306 8.7 115.686 8.7C117.186 8.7 117.786 9.06 117.786 10.04V10.84H114.166C111.506 10.84 110.186 11.88 110.186 13.98C110.186 16.16 111.526 17.3 113.846 17.3C115.706 17.3 117.546 16.56 118.366 15.18L118.006 15.92L118.286 17H121.006V9.7C121.006 7.44 119.366 6.3 115.826 6.3ZM115.006 14.88C113.986 14.88 113.466 14.52 113.466 13.82C113.466 13.14 113.866 12.8 114.686 12.8H117.786V14.02C117.086 14.6 116.206 14.88 115.146 14.88H115.006ZM71.26 31L73.88 24L76.5 31H80.12L83.54 20.6H80.22L78.18 27.6L75.58 20.6H72.18L69.58 27.6L67.54 20.6H64.22L67.62 31H71.26ZM89.15 31.3C90.93 31.3 92.35 30.78 93.39 29.74C94.43 28.7 94.95 27.38 94.95 25.8C94.95 24.22 94.43 22.9 93.39 21.86C92.35 20.82 90.93 20.3 89.15 20.3C87.37 20.3 85.97 20.82 84.93 21.86C83.89 22.9 83.37 24.22 83.37 25.8C83.37 27.38 83.89 28.7 84.93 29.74C85.97 30.78 87.37 31.3 89.15 31.3ZM87.23 27.7C86.77 27.2 86.53 26.58 86.53 25.8C86.53 25.02 86.77 24.4 87.23 23.9C87.69 23.4 88.33 23.16 89.15 23.16C89.97 23.16 90.61 23.4 91.07 23.9C91.53 24.4 91.77 25.02 91.77 25.8C91.77 26.58 91.53 27.2 91.07 27.7C90.61 28.2 89.97 28.44 89.15 28.44C88.33 28.44 87.69 28.2 87.23 27.7ZM103.163 20.3C101.343 20.3 100.363 21.12 99.623 22.62L99.883 21.98L99.763 20.6H96.663V31H99.883V25.5C99.883 24.04 100.583 23.12 102.023 23.12C103.303 23.12 103.943 23.82 103.943 25.24V25.48H106.943V24.68C106.943 21.96 105.663 20.3 103.163 20.3ZM116.61 25.42L120.65 20.6H116.91L113.61 24.8L112.13 26.72H112.05L112.11 24.76V16.8H108.89V31H111.93L114.73 27.66L117.47 31H121.25L116.61 25.42ZM69.64 45.3C73.16 45.3 74.92 44.12 74.92 41.78C74.92 39.78 73.82 38.96 71.5 38.74L69.1 38.52C68.22 38.44 67.86 38.18 67.86 37.6C67.86 36.96 68.48 36.64 69.7 36.64C70.98 36.64 71.56 36.94 71.7 37.72H74.6C74.52 36.34 73.94 35.38 72.98 34.92C72.02 34.44 71.08 34.3 69.8 34.3C66.42 34.3 64.72 35.44 64.72 37.7C64.72 39.58 65.86 40.62 68.12 40.82L70.52 41.04C71.38 41.12 71.74 41.36 71.74 41.94C71.74 42.6 71.2 42.92 69.74 42.92C68.36 42.92 67.68 42.64 67.54 41.84H64.62C64.7 43.14 65.18 44.06 66.06 44.56C66.94 45.06 68.14 45.3 69.64 45.3ZM83.303 34.32C81.603 34.32 80.263 35.14 79.303 36.78L79.883 35.68L79.823 34.6H76.663V47.88H79.883V43.72C80.663 44.78 81.803 45.3 83.303 45.3C84.843 45.3 86.063 44.78 87.003 43.72C87.943 42.66 88.423 41.36 88.423 39.8C88.423 38.24 87.943 36.94 87.003 35.9C86.063 34.84 84.843 34.32 83.303 34.32ZM80.583 41.72C80.083 41.22 79.843 40.58 79.843 39.8C79.843 39.02 80.083 38.38 80.583 37.88C81.083 37.38 81.723 37.12 82.543 37.12C83.363 37.12 84.003 37.38 84.483 37.88C84.983 38.38 85.223 39.02 85.223 39.8C85.223 40.58 84.983 41.24 84.483 41.74C84.003 42.24 83.363 42.48 82.543 42.48C81.723 42.48 81.083 42.22 80.583 41.72ZM95.2795 34.3C91.8995 34.3 90.0795 35.26 90.1795 37.82H93.0395C93.1795 37 93.7595 36.7 95.1395 36.7C96.6395 36.7 97.2395 37.06 97.2395 38.04V38.84H93.6195C90.9595 38.84 89.6395 39.88 89.6395 41.98C89.6395 44.16 90.9795 45.3 93.2995 45.3C95.1595 45.3 96.9995 44.56 97.8195 43.18L97.4595 43.92L97.7395 45H100.46V37.7C100.46 35.44 98.8195 34.3 95.2795 34.3ZM94.4595 42.88C93.4395 42.88 92.9195 42.52 92.9195 41.82C92.9195 41.14 93.3195 40.8 94.1395 40.8H97.2395V42.02C96.5395 42.6 95.6595 42.88 94.5995 42.88H94.4595ZM107.958 45.3C109.538 45.3 110.818 44.9 111.778 44.08C112.738 43.26 113.298 42.18 113.438 40.84H110.278C110.018 41.88 109.158 42.44 107.958 42.44C106.358 42.44 105.378 41.38 105.378 39.8C105.378 38.22 106.358 37.16 107.958 37.16C109.158 37.16 110.018 37.72 110.278 38.76H113.438C113.118 36.06 111.138 34.3 107.958 34.3C106.138 34.3 104.738 34.82 103.718 35.86C102.698 36.88 102.198 38.2 102.198 39.8C102.198 41.4 102.698 42.72 103.718 43.76C104.738 44.78 106.138 45.3 107.958 45.3ZM126.039 40.76C126.199 38.74 125.759 37.16 124.739 36.02C123.719 34.88 122.299 34.3 120.439 34.3C118.639 34.3 117.219 34.82 116.199 35.86C115.179 36.88 114.679 38.2 114.679 39.8C114.679 41.42 115.179 42.74 116.199 43.76C117.219 44.78 118.619 45.3 120.419 45.3C121.919 45.3 123.139 44.96 124.079 44.26C125.019 43.56 125.579 42.74 125.759 41.78H122.699C122.399 42.48 121.699 42.84 120.599 42.84C119.099 42.84 118.199 42.14 117.919 40.76H126.039ZM120.439 36.66C121.799 36.66 122.579 37.3 122.879 38.82H117.899C118.139 37.38 118.979 36.66 120.439 36.66Z" fill="#1F1D8D"/>
<defs>
<clipPath id="clip0">
<rect width="48" height="48" rx="6" fill="white"/>
</clipPath>
</defs>
</svg>
